# Blender 3.6.4
# www.blender.org
mtllib r12.mtl
o Cylinder
v 0.000000 -0.022709 -0.156156
v 0.000000 0.022709 -0.156156
v 0.030678 -0.022709 -0.153156
v 0.030678 0.022709 -0.153156
v 0.060177 -0.022709 -0.144270
v 0.060177 0.022709 -0.144270
v 0.087364 -0.022709 -0.129839
v 0.087364 0.022709 -0.129839
v 0.111193 -0.022709 -0.110419
v 0.111193 0.022709 -0.110419
v 0.130749 -0.022709 -0.086756
v 0.130749 0.022709 -0.086756
v 0.145281 -0.022709 -0.059758
v 0.145281 0.022709 -0.059758
v 0.154229 -0.022709 -0.030465
v 0.154229 0.022709 -0.030465
v 0.157251 -0.022709 -0.000000
v 0.157251 0.022709 -0.000000
v 0.154229 -0.022709 0.030465
v 0.154229 0.022709 0.030465
v 0.145281 -0.022709 0.059758
v 0.145281 0.022709 0.059758
v 0.130749 -0.022709 0.086756
v 0.130749 0.022709 0.086756
v 0.111193 -0.022709 0.110419
v 0.111193 0.022709 0.110419
v 0.087364 -0.022709 0.129839
v 0.087364 0.022709 0.129839
v 0.060177 -0.022709 0.144270
v 0.060177 0.022709 0.144270
v 0.030678 -0.022709 0.153156
v 0.030678 0.022709 0.153156
v 0.000000 -0.022709 0.156156
v 0.000000 0.022709 0.156156
v -0.030678 -0.022709 0.153156
v -0.030678 0.022709 0.153156
v -0.060177 -0.022709 0.144270
v -0.060177 0.022709 0.144270
v -0.087364 -0.022709 0.129839
v -0.087364 0.022709 0.129839
v -0.111193 -0.022709 0.110419
v -0.111193 0.022709 0.110419
v -0.130749 -0.022709 0.086756
v -0.130749 0.022709 0.086756
v -0.145281 -0.022709 0.059758
v -0.145281 0.022709 0.059758
v -0.154229 -0.022709 0.030465
v -0.154229 0.022709 0.030465
v -0.157251 -0.022709 -0.000000
v -0.157251 0.022709 -0.000000
v -0.154229 -0.022709 -0.030465
v -0.154229 0.022709 -0.030465
v -0.145281 -0.022709 -0.059758
v -0.145281 0.022709 -0.059758
v -0.130749 -0.022709 -0.086756
v -0.130749 0.022709 -0.086756
v -0.111193 -0.022709 -0.110419
v -0.111193 0.022709 -0.110419
v -0.087364 -0.022709 -0.129839
v -0.087364 0.022709 -0.129839
v -0.060177 -0.022709 -0.144270
v -0.060177 0.022709 -0.144270
v -0.030678 -0.022709 -0.153156
v -0.030678 0.022709 -0.153156
vn 0.0973 -0.0000 -0.9953
vn 0.2884 -0.0000 -0.9575
vn 0.4688 -0.0000 -0.8833
vn 0.6317 -0.0000 -0.7752
vn 0.7708 -0.0000 -0.6370
vn 0.8805 -0.0000 -0.4740
vn 0.9564 -0.0000 -0.2921
vn 0.9951 -0.0000 -0.0987
vn 0.9951 -0.0000 0.0987
vn 0.9564 -0.0000 0.2921
vn 0.8805 -0.0000 0.4740
vn 0.7708 -0.0000 0.6370
vn 0.6317 -0.0000 0.7752
vn 0.4688 -0.0000 0.8833
vn 0.2884 -0.0000 0.9575
vn 0.0973 -0.0000 0.9953
vn -0.0973 -0.0000 0.9953
vn -0.2884 -0.0000 0.9575
vn -0.4688 -0.0000 0.8833
vn -0.6317 -0.0000 0.7752
vn -0.7708 -0.0000 0.6370
vn -0.8805 -0.0000 0.4740
vn -0.9564 -0.0000 0.2921
vn -0.9951 -0.0000 0.0987
vn -0.9951 -0.0000 -0.0987
vn -0.9564 -0.0000 -0.2921
vn -0.8805 -0.0000 -0.4740
vn -0.7708 -0.0000 -0.6370
vn -0.6317 -0.0000 -0.7752
vn -0.4688 -0.0000 -0.8833
vn -0.0000 1.0000 -0.0000
vn -0.2884 -0.0000 -0.9575
vn -0.0973 -0.0000 -0.9953
vn -0.0000 -1.0000 -0.0000
vt 0.789902 0.748973
vt 0.716842 0.748973
vt 0.716842 0.699389
vt 0.789902 0.699389
vt 0.716842 0.650770
vt 0.789902 0.650770
vt 0.716842 0.604984
vt 0.789902 0.604984
vt 0.716842 0.563791
vt 0.789902 0.563791
vt 0.936022 0.882522
vt 0.862962 0.882522
vt 0.862962 0.841542
vt 0.936022 0.841542
vt 0.862962 0.796020
vt 0.936022 0.796020
vt 0.862962 0.747709
vt 0.936022 0.747709
vt 0.862962 0.698463
vt 0.936022 0.698463
vt 0.862962 0.650176
vt 0.936022 0.650176
vt 0.862962 0.604702
vt 0.936022 0.604702
vt 0.862962 0.563791
vt 0.936022 0.563791
vt 0.716842 0.954836
vt 0.643783 0.954836
vt 0.643783 0.919818
vt 0.716842 0.919818
vt 0.643783 0.878625
vt 0.716842 0.878625
vt 0.643783 0.832839
vt 0.716842 0.832839
vt 0.643783 0.784220
vt 0.716842 0.784220
vt 0.643783 0.734636
vt 0.716842 0.734636
vt 0.643783 0.685992
vt 0.716842 0.685992
vt 0.643783 0.640159
vt 0.716842 0.640159
vt 0.643783 0.598896
vt 0.716842 0.598896
vt 0.643783 0.563791
vt 0.862962 0.917300
vt 0.789902 0.917300
vt 0.789902 0.876319
vt 0.862962 0.876319
vt 0.789902 0.830798
vt 0.862962 0.830798
vt 0.789902 0.782486
vt 0.862962 0.782486
vt 0.789902 0.733241
vt 0.862962 0.733241
vt 0.789902 0.684953
vt 0.862962 0.684953
vt 0.789902 0.639480
vt 0.862962 0.639480
vt 0.789902 0.598568
vt 0.862962 0.598568
vt 0.789902 0.919819
vt 0.716843 0.919819
vt 0.716843 0.884713
vt 0.789902 0.884713
vt 0.716842 0.843451
vt 0.789902 0.843451
vt 0.502153 0.723989
vt 0.502153 0.773573
vt 0.492546 0.822218
vt 0.473700 0.868053
vt 0.446341 0.909319
vt 0.411519 0.944427
vt 0.370573 0.972031
vt 0.325076 0.991068
vt 0.276776 1.000807
vt 0.227531 1.000874
vt 0.179231 0.991266
vt 0.133734 0.972353
vt 0.092788 0.944862
vt 0.057966 0.909848
vt 0.030606 0.868658
vt 0.011760 0.822873
vt 0.002153 0.774255
vt 0.002153 0.724671
vt 0.011760 0.676026
vt 0.030606 0.630191
vt 0.057965 0.588926
vt 0.092787 0.553817
vt 0.133734 0.526214
vt 0.179231 0.507177
vt 0.227530 0.497438
vt 0.276776 0.497370
vt 0.325075 0.506978
vt 0.370572 0.525891
vt 0.411519 0.553383
vt 0.446341 0.588396
vt 0.473700 0.629587
vt 0.492546 0.675371
vt 0.716842 0.797617
vt 0.789902 0.797617
vt 1.000000 0.276203
vt 0.990393 0.324848
vt 0.971547 0.370683
vt 0.944188 0.411948
vt 0.909366 0.447057
vt 0.868420 0.474660
vt 0.822923 0.493697
vt 0.774623 0.503436
vt 0.725377 0.503504
vt 0.677078 0.493896
vt 0.631581 0.474983
vt 0.590635 0.447491
vt 0.555813 0.412478
vt 0.528453 0.371287
vt 0.509607 0.325503
vt 0.500000 0.276885
vt 0.500000 0.227301
vt 0.509607 0.178656
vt 0.528453 0.132821
vt 0.555812 0.091555
vt 0.590634 0.056447
vt 0.631580 0.028843
vt 0.677077 0.009806
vt 0.725377 0.000067
vt 0.774623 -0.000000
vt 0.822922 0.009608
vt 0.868419 0.028521
vt 0.909366 0.056012
vt 0.944187 0.091026
vt 0.971547 0.132216
vt 0.990393 0.178001
vt 1.000000 0.226619
s 0
usemtl Material.005
f 1/1/1 2/2/1 4/3/1 3/4/1
f 3/4/2 4/3/2 6/5/2 5/6/2
f 5/6/3 6/5/3 8/7/3 7/8/3
f 7/8/4 8/7/4 10/9/4 9/10/4
f 9/11/5 10/12/5 12/13/5 11/14/5
f 11/14/6 12/13/6 14/15/6 13/16/6
f 13/16/7 14/15/7 16/17/7 15/18/7
f 15/18/8 16/17/8 18/19/8 17/20/8
f 17/20/9 18/19/9 20/21/9 19/22/9
f 19/22/10 20/21/10 22/23/10 21/24/10
f 21/24/11 22/23/11 24/25/11 23/26/11
f 23/27/12 24/28/12 26/29/12 25/30/12
f 25/30/13 26/29/13 28/31/13 27/32/13
f 27/32/14 28/31/14 30/33/14 29/34/14
f 29/34/15 30/33/15 32/35/15 31/36/15
f 31/36/16 32/35/16 34/37/16 33/38/16
f 33/38/17 34/37/17 36/39/17 35/40/17
f 35/40/18 36/39/18 38/41/18 37/42/18
f 37/42/19 38/41/19 40/43/19 39/44/19
f 39/44/20 40/43/20 42/45/20 41/9/20
f 41/46/21 42/47/21 44/48/21 43/49/21
f 43/49/22 44/48/22 46/50/22 45/51/22
f 45/51/23 46/50/23 48/52/23 47/53/23
f 47/53/24 48/52/24 50/54/24 49/55/24
f 49/55/25 50/54/25 52/56/25 51/57/25
f 51/57/26 52/56/26 54/58/26 53/59/26
f 53/59/27 54/58/27 56/60/27 55/61/27
f 55/61/28 56/60/28 58/10/28 57/25/28
f 57/62/29 58/63/29 60/64/29 59/65/29
f 59/65/30 60/64/30 62/66/30 61/67/30
f 4/68/31 2/69/31 64/70/31 62/71/31 60/72/31 58/73/31 56/74/31 54/75/31 52/76/31 50/77/31 48/78/31 46/79/31 44/80/31 42/81/31 40/82/31 38/83/31 36/84/31 34/85/31 32/86/31 30/87/31 28/88/31 26/89/31 24/90/31 22/91/31 20/92/31 18/93/31 16/94/31 14/95/31 12/96/31 10/97/31 8/98/31 6/99/31
f 61/67/32 62/66/32 64/100/32 63/101/32
f 63/101/33 64/100/33 2/2/33 1/1/33
f 1/102/34 3/103/34 5/104/34 7/105/34 9/106/34 11/107/34 13/108/34 15/109/34 17/110/34 19/111/34 21/112/34 23/113/34 25/114/34 27/115/34 29/116/34 31/117/34 33/118/34 35/119/34 37/120/34 39/121/34 41/122/34 43/123/34 45/124/34 47/125/34 49/126/34 51/127/34 53/128/34 55/129/34 57/130/34 59/131/34 61/132/34 63/133/34
