# Blender 3.6.4
# www.blender.org
mtllib chessboard.mtl
o Cube
v -0.609899 0.075230 1.026677
v -0.609899 0.125394 1.026677
v -0.609899 0.075230 -0.773323
v -0.609899 0.125394 -0.773323
v 0.990101 0.075230 1.026677
v 0.990101 0.125394 1.026677
v 0.990101 0.075230 -0.773323
v 0.990101 0.125394 -0.773323
vn -1.0000 -0.0000 -0.0000
vn -0.0000 -0.0000 -1.0000
vn 1.0000 -0.0000 -0.0000
vn -0.0000 -0.0000 1.0000
vn -0.0000 -1.0000 -0.0000
vn -0.0000 1.0000 -0.0000
vt 0.229088 0.659022
vt 0.197349 0.659022
vt 0.197349 0.489746
vt 0.229088 0.489746
vt 0.292567 0.640213
vt 0.260828 0.640213
vt 0.260827 0.489746
vt 0.292567 0.489746
vt 0.260827 0.659022
vt 0.260827 0.489746
vt 0.324306 0.640213
vt 0.324306 0.489746
vt 0.535900 0.489746
vt 0.197349 0.489746
vt 0.197349 0.235833
vt 0.535900 0.235833
vt 0.653898 0.736089
vt 0.334395 0.736089
vt 0.334395 0.496461
vt 0.653898 0.496461
s 0
usemtl Material.001
f 1/1/1 2/2/1 4/3/1 3/4/1
f 3/5/2 4/6/2 8/7/2 7/8/2
f 7/9/3 8/1/3 6/4/3 5/10/3
f 5/11/4 6/5/4 2/8/4 1/12/4
f 3/13/5 7/14/5 5/15/5 1/16/5
f 8/17/6 4/18/6 2/19/6 6/20/6
